<svg width="26" height="26" viewBox="0 0 26 26" fill="none" xmlns="http://www.w3.org/2000/svg">
<circle cx="13" cy="13" r="13" fill="#F2C2A4"/>
<path d="M13 20.8275L12.2825 20.18C11.0458 19.0483 10.025 18.0712 9.22 17.2487C8.415 16.4262 7.77333 15.6912 7.295 15.0437C6.81667 14.3962 6.48125 13.81 6.28875 13.285C6.09625 12.76 6 12.2292 6 11.6925C6 10.6425 6.35292 9.76458 7.05875 9.05875C7.76458 8.35292 8.63667 8 9.675 8C10.34 8 10.9554 8.1575 11.5212 8.4725C12.0871 8.7875 12.58 9.2425 13 9.8375C13.49 9.2075 14.0092 8.74375 14.5575 8.44625C15.1058 8.14875 15.695 8 16.325 8C17.3633 8 18.2354 8.35292 18.9412 9.05875C19.6471 9.76458 20 10.6425 20 11.6925C20 12.2292 19.9037 12.76 19.7112 13.285C19.5187 13.81 19.1833 14.3962 18.705 15.0437C18.2267 15.6912 17.585 16.4262 16.78 17.2487C15.975 18.0712 14.9542 19.0483 13.7175 20.18L13 20.8275ZM13 19.445C14.1783 18.36 15.1496 17.4296 15.9138 16.6537C16.6779 15.8779 17.2846 15.1983 17.7338 14.615C18.1829 14.0317 18.4979 13.5125 18.6787 13.0575C18.8596 12.6025 18.95 12.1475 18.95 11.6925C18.95 10.9225 18.705 10.2896 18.215 9.79375C17.725 9.29792 17.095 9.05 16.325 9.05C15.73 9.05 15.1758 9.23375 14.6625 9.60125C14.1492 9.96875 13.735 10.485 13.42 11.15H12.5625C12.2592 10.4967 11.8508 9.98333 11.3375 9.61C10.8242 9.23667 10.27 9.05 9.675 9.05C8.905 9.05 8.275 9.29792 7.785 9.79375C7.295 10.2896 7.05 10.9225 7.05 11.6925C7.05 12.1475 7.14042 12.6054 7.32125 13.0662C7.50208 13.5271 7.81708 14.0521 8.26625 14.6412C8.71542 15.2304 9.325 15.91 10.095 16.68C10.865 17.45 11.8333 18.3717 13 19.445Z" fill="white"/>
<path d="M6.70002 11.045C8.80002 6.565 11.775 9.17833 13 11.045C17.34 5.865 19.0084 9.70333 19.3 12.27C18.74 15.49 14.6334 18.6283 12.65 19.795C7.19002 15.595 6.40836 12.2117 6.70002 11.045Z" fill="white"/>
</svg>
