<svg width="46" height="54" viewBox="0 0 46 54" fill="none" xmlns="http://www.w3.org/2000/svg">
<path d="M13.0167 6C11.8167 5.6 11.1834 6.16667 11.0167 6.5L2.0167 39.5C1.67914 40.7377 6.54272 42.0157 9.0167 42.5V50C9.0167 52 10.0167 52.5 10.5167 52.5H41.5167C43.1167 52.5 43.5167 51.3985 43.5167 50.8477V17.5L44.0167 15C44.0167 14.2 38.0167 12.6667 35.0167 12V11.5C38.6167 11.1 39.5167 8 39.5167 6.5C39.5167 3.30001 36.5167 2.16667 35.0167 2C31.8167 2 30.35 4.33333 30.0167 5.5C27.2167 5.9 25.85 8.33333 25.5167 9.5C21.85 8.5 14.2167 6.4 13.0167 6Z" stroke="#2F3F67" stroke-width="2.5"/>
<path d="M30.0167 5.5C29.6834 7.66667 30.4167 11.9 36.0167 11.5" stroke="#2F3F67" stroke-width="2.5"/>
<path d="M25.5168 9.5C25.3501 10.3333 25.5168 12.4 27.5168 14M27.5168 14C30.0168 16 34.0167 15 35.0167 11.5M27.5168 14L25.5167 16" stroke="#2F3F67" stroke-width="2.5"/>
<path d="M44.0167 15L36.5167 42L27.5167 47L9.01672 42.5" stroke="#2F3F67" stroke-width="2.5"/>
<path d="M27.5167 47L29.5167 40.5C29.6834 40 30.4167 39.2 32.0167 40C33.6167 40.8 35.6834 41.6667 36.5167 42" stroke="#2F3F67" stroke-width="2.5"/>
<rect x="14.0754" y="19" width="21" height="1.61462" rx="0.807309" transform="rotate(16.22 14.0754 19)" fill="#2F3F67"/>
<rect x="12.9677" y="23" width="21" height="1.61462" rx="0.807309" transform="rotate(16.22 12.9677 23)" fill="#2F3F67"/>
<rect x="11.86" y="27" width="7.50411" height="1.61462" rx="0.807309" transform="rotate(16.22 11.86 27)" fill="#D9D9D9"/>
<rect x="11.86" y="27" width="7.50411" height="1.61462" rx="0.807309" transform="rotate(16.22 11.86 27)" fill="#2F3F67"/>
<circle cx="22.5167" cy="31" r="1" fill="#2F3F67"/>
</svg>
