<svg width="34" height="45" viewBox="0 0 34 45" fill="none" xmlns="http://www.w3.org/2000/svg">
<path d="M28.803 25.1431C27.3183 28.1292 25.3086 31.1065 23.2496 33.7782C21.1971 36.4416 19.1375 38.7473 17.5884 40.3888C17.3826 40.607 17.186 40.8131 17 41.0065C16.814 40.8131 16.6174 40.607 16.4116 40.3888C14.8625 38.7473 12.8029 36.4416 10.7504 33.7782C8.69136 31.1065 6.6817 28.1292 5.19698 25.1431C3.69695 22.1261 2.83333 19.2991 2.83333 16.875C2.83333 9.1085 9.17597 2.8125 17 2.8125C24.824 2.8125 31.1667 9.1085 31.1667 16.875C31.1667 19.2991 30.3031 22.1261 28.803 25.1431ZM17 45C17 45 34 29.0073 34 16.875C34 7.55519 26.3888 0 17 0C7.61116 0 0 7.55519 0 16.875C0 29.0073 17 45 17 45Z" fill="#E37A39"/>
<path d="M17 22.5C13.8704 22.5 11.3333 19.9816 11.3333 16.875C11.3333 13.7684 13.8704 11.25 17 11.25C20.1296 11.25 22.6667 13.7684 22.6667 16.875C22.6667 19.9816 20.1296 22.5 17 22.5ZM17 25.3125C21.6944 25.3125 25.5 21.5349 25.5 16.875C25.5 12.2151 21.6944 8.4375 17 8.4375C12.3056 8.4375 8.5 12.2151 8.5 16.875C8.5 21.5349 12.3056 25.3125 17 25.3125Z" fill="#E37A39"/>
</svg>
