<svg width="40" height="40" viewBox="0 0 40 40" fill="none" xmlns="http://www.w3.org/2000/svg">
<path d="M20 20C25.5228 20 30 15.5228 30 10C30 4.47715 25.5228 0 20 0C14.4772 0 10 4.47715 10 10C10 15.5228 14.4772 20 20 20ZM26.6667 10C26.6667 13.6819 23.6819 16.6667 20 16.6667C16.3181 16.6667 13.3333 13.6819 13.3333 10C13.3333 6.3181 16.3181 3.33333 20 3.33333C23.6819 3.33333 26.6667 6.3181 26.6667 10Z" fill="#2F3F67"/>
<path d="M40 36.6667C40 40 36.6667 40 36.6667 40H3.33333C3.33333 40 0 40 0 36.6667C0 33.3333 3.33333 23.3333 20 23.3333C36.6667 23.3333 40 33.3333 40 36.6667ZM36.6666 36.6551C36.6618 35.8324 36.1541 33.3682 33.8929 31.107C31.7188 28.9328 27.6303 26.6667 20 26.6667C12.3696 26.6667 8.28118 28.9328 6.10699 31.107C3.84585 33.3682 3.33808 35.8324 3.33333 36.6551H36.6666Z" fill="#2F3F67"/>
</svg>
