<svg width="50" height="69" viewBox="0 0 50 69" fill="none" xmlns="http://www.w3.org/2000/svg">
<path d="M25 67.5803C24.8927 67.4706 24.774 67.3486 24.6446 67.2148C23.9678 66.5149 22.9988 65.4924 21.8352 64.2067C19.5069 61.6342 16.4044 58.0136 13.3042 53.8192C10.2019 49.6219 7.11591 44.8689 4.80888 40.0309C2.49692 35.1826 1 30.3165 1 25.875C1 12.1042 11.7773 1 25 1C38.2227 1 49 12.1042 49 25.875C49 30.3165 47.5031 35.1826 45.1911 40.0309C42.8841 44.8689 39.7981 49.6219 36.6958 53.8192C33.5956 58.0136 30.4931 61.6342 28.1648 64.2067C27.0012 65.4924 26.0322 66.5149 25.3554 67.2148C25.226 67.3486 25.1073 67.4706 25 67.5803ZM11.5 25.875C11.5 33.5398 17.512 39.8125 25 39.8125C32.488 39.8125 38.5 33.5398 38.5 25.875C38.5 18.2102 32.488 11.9375 25 11.9375C17.512 11.9375 11.5 18.2102 11.5 25.875Z" fill="#E37A39" stroke="black" stroke-width="2"/>
<circle cx="25" cy="26" r="13" fill="white"/>
</svg>
