<svg width="25" height="25" viewBox="0 0 25 25" fill="none" xmlns="http://www.w3.org/2000/svg">
<path d="M11.6438 25V22.8596C9.03729 22.5932 6.86834 21.5944 5.13699 19.863C3.40563 18.1317 2.40677 15.9627 2.14041 13.3562H0V11.6438H2.14041C2.40677 9.03729 3.40563 6.86834 5.13699 5.13699C6.86834 3.40563 9.03729 2.40677 11.6438 2.14041V0H13.3562V2.14041C15.9627 2.40677 18.1317 3.40563 19.863 5.13699C21.5944 6.86834 22.5932 9.03729 22.8596 11.6438H25V13.3562H22.8596C22.5932 15.9627 21.5944 18.1317 19.863 19.863C18.1317 21.5944 15.9627 22.5932 13.3562 22.8596V25H11.6438ZM12.5 21.1758C14.8782 21.1758 16.9188 20.3244 18.6216 18.6216C20.3244 16.9188 21.1758 14.8782 21.1758 12.5C21.1758 10.1218 20.3244 8.08124 18.6216 6.37842C16.9188 4.67561 14.8782 3.8242 12.5 3.8242C10.1218 3.8242 8.08124 4.67561 6.37842 6.37842C4.67561 8.08124 3.8242 10.1218 3.8242 12.5C3.8242 14.8782 4.67561 16.9188 6.37842 18.6216C8.08124 20.3244 10.1218 21.1758 12.5 21.1758ZM12.5 16.7808C11.3014 16.7808 10.2882 16.367 9.46062 15.5394C8.63299 14.7118 8.21918 13.6986 8.21918 12.5C8.21918 11.3014 8.63299 10.2882 9.46062 9.46062C10.2882 8.63299 11.3014 8.21918 12.5 8.21918C13.6986 8.21918 14.7118 8.63299 15.5394 9.46062C16.367 10.2882 16.7808 11.3014 16.7808 12.5C16.7808 13.6986 16.367 14.7118 15.5394 15.5394C14.7118 16.367 13.6986 16.7808 12.5 16.7808ZM12.5 15.0685C13.223 15.0685 13.8318 14.8212 14.3265 14.3265C14.8212 13.8318 15.0685 13.223 15.0685 12.5C15.0685 11.777 14.8212 11.1682 14.3265 10.6735C13.8318 10.1788 13.223 9.93151 12.5 9.93151C11.777 9.93151 11.1682 10.1788 10.6735 10.6735C10.1788 11.1682 9.93151 11.777 9.93151 12.5C9.93151 13.223 10.1788 13.8318 10.6735 14.3265C11.1682 14.8212 11.777 15.0685 12.5 15.0685Z" fill="white"/>
</svg>
